<?xml version="1.0" encoding="UTF-8" standalone="no"?>
<svg
   xmlns:osb="http://www.openswatchbook.org/uri/2009/osb"
   xmlns:dc="http://purl.org/dc/elements/1.1/"
   xmlns:cc="http://creativecommons.org/ns#"
   xmlns:rdf="http://www.w3.org/1999/02/22-rdf-syntax-ns#"
   xmlns:svg="http://www.w3.org/2000/svg"
   xmlns="http://www.w3.org/2000/svg"
   xmlns:xlink="http://www.w3.org/1999/xlink"
   xmlns:sodipodi="http://sodipodi.sourceforge.net/DTD/sodipodi-0.dtd"
   xmlns:inkscape="http://www.inkscape.org/namespaces/inkscape"
   version="1.0"
   width="234.000000pt"
   height="82.000000pt"
   viewBox="0 0 234.000000 82.000000"
   preserveAspectRatio="xMidYMid meet"
   id="svg2"
   inkscape:version="0.91 r13725"
   sodipodi:docname="specs3.svg">
  <defs
     id="defs16">
    <linearGradient
       id="linearGradient4294"
       osb:paint="solid">
      <stop
         style="stop-color:#ffffff;stop-opacity:1;"
         offset="0"
         id="stop4296" />
    </linearGradient>
    <linearGradient
       inkscape:collect="always"
       xlink:href="#linearGradient4294"
       id="linearGradient4298"
       x1="160.18183"
       y1="42.121459"
       x2="176.18481"
       y2="42.121459"
       gradientUnits="userSpaceOnUse" />
    <linearGradient
       inkscape:collect="always"
       xlink:href="#linearGradient4294"
       id="linearGradient4300"
       x1="5.459445"
       y1="408.01171"
       x2="2341.3281"
       y2="408.01171"
       gradientUnits="userSpaceOnUse" />
  </defs>
  <sodipodi:namedview
     pagecolor="#ffffff"
     bordercolor="#666666"
     borderopacity="1"
     objecttolerance="10"
     gridtolerance="10"
     guidetolerance="10"
     inkscape:pageopacity="0"
     inkscape:pageshadow="2"
     inkscape:window-width="1813"
     inkscape:window-height="875"
     id="namedview14"
     showgrid="true"
     inkscape:zoom="1"
     inkscape:cx="196.63521"
     inkscape:cy="53.15625"
     inkscape:window-x="0"
     inkscape:window-y="31"
     inkscape:window-maximized="0"
     inkscape:current-layer="svg2">
    <inkscape:grid
       type="xygrid"
       id="grid4146" />
  </sodipodi:namedview>
  <metadata
     id="metadata4">
Created by potrace 1.13, written by Peter Selinger 2001-2015
<rdf:RDF>
  <cc:Work
     rdf:about="">
    <dc:format>image/svg+xml</dc:format>
    <dc:type
       rdf:resource="http://purl.org/dc/dcmitype/StillImage" />
    <dc:title></dc:title>
  </cc:Work>
</rdf:RDF>
</metadata>
  <g
     transform="translate(0.000000,82.000000) scale(0.100000,-0.100000)"
     fill="#000000"
     stroke="none"
     id="g6"
     style="stroke:#ffffff;stroke-opacity:1;fill-opacity:1;fill:url(#linearGradient4300)">
    <path
       d="M425 814 c-228 -20 -405 -48 -416 -65 -3 -6 -4 -41 -2 -78 5 -57 9 -69 33 -89 32 -25 55 -88 65 -172 20 -169 95 -308 196 -360 95 -49 265 -64 383 -34 33 8 89 29 124 46 119 59 230 211 282 388 25 83 39 100 86 100 41 0 50 -12 88 -124 80 -232 206 -361 401 -411 84 -21 215 -19 300 5 163 46 235 147 275 382 20 117 38 159 75 184 23 15 25 22 25 94 0 92 25 78 -200 111 -166 24 -412 29 -550 10 -47 -7 -138 -25 -204 -41 -161 -41 -264 -41 -424 -1 -64 16 -153 34 -197 39 -93 13 -282 21 -340 16z m385 -84 c129 -35 190 -101 190 -206 -1 -284 -210 -482 -485 -460 -194 15 -272 81 -310 261 -16 79 -19 220 -5 280 11 51 73 110 129 125 102 27 381 28 481 0z m1210 0 c46 -12 95 -51 116 -91 34 -67 27 -257 -14 -389 -34 -109 -133 -174 -286 -187 -276 -23 -485 172 -489 457 -1 114 51 171 193 210 98 27 379 27 480 0z"
       id="path8"
       style="stroke:#ffffff;stroke-opacity:1;fill-opacity:1;fill:url(#linearGradient4300)" />
    <path
       d="M553 490 c-61 -36 -115 -68 -118 -71 -3 -4 47 -37 111 -74 92 -54 118 -65 125 -54 17 26 4 43 -58 79 -34 19 -65 38 -68 41 -3 4 26 25 65 48 69 41 76 50 62 81 -6 13 -28 4 -119 -50z"
       id="path10"
       style="stroke:#ffffff;stroke-opacity:1;fill-opacity:1;fill:url(#linearGradient4300)" />
    <path
       d="M1776 516 c-3 -11 -6 -24 -6 -28 0 -4 32 -26 70 -49 39 -23 68 -44 65 -48 -3 -3 -34 -22 -68 -41 -62 -36 -75 -53 -58 -79 7 -11 33 0 126 54 64 37 113 71 108 75 -4 4 -58 36 -120 72 -105 62 -112 65 -117 44z"
       id="path12"
       style="stroke:#ffffff;stroke-opacity:1;fill-opacity:1;fill:url(#linearGradient4300)" />
  </g>
  <path
     style="fill:url(#linearGradient4298);fill-rule:evenodd;stroke:#ffffff;stroke-width:0.87642688px;stroke-linecap:butt;stroke-linejoin:miter;stroke-opacity:1;fill-opacity:1"
     d="m 160.79495,55.649469 9.3374,-27.091468 5.43676,0.04259 -9.46707,27.084677 z"
     id="path4144"
     inkscape:connector-curvature="0"
     sodipodi:nodetypes="ccccc" />
</svg>
